ffmpeg started on 2025-05-12 at 21:42:49
Report written to "D:\Convert\FFMetrics\reports\ssim_report-6.txt"
Log level: 32
Command line:
ffmpeg -hide_banner -nostdin -i "G:\\\xc0\xed\xe8\xec\xe5\\\xce\xed\xe3\xee\xe8\xed\xe3\xe8\\!_35_\xcb\xe5\xf2\xee_2024\\DreamCast-1\\\xd1\xeb\xe8\xf8\xea\xee\xec \xec\xed\xee\xe3\xee \xef\xf0\xee\xe8\xe3\xf0\xe0\xe2\xf8\xe8\xf5 \xe3\xe5\xf0\xee\xe8\xed\xfc!\\[DC] Make Heroine ga Oosugiru - 03_Telegram_HEVC.mkv" -i "G:\\\xc0\xed\xe8\xec\xe5\\\xce\xed\xe3\xee\xe8\xed\xe3\xe8\\!_35_\xcb\xe5\xf2\xee_2024\\DreamCast-1\\\xd1\xeb\xe8\xf8\xea\xee\xec \xec\xed\xee\xe3\xee \xef\xf0\xee\xe8\xe3\xf0\xe0\xe2\xf8\xe8\xf5 \xe3\xe5\xf0\xee\xe8\xed\xfc!\\[DC] Make Heroine ga Oosugiru - 03_Telegram.mp4" -lavfi "[0:v]settb=AVTB,setpts=PTS-STARTPTS,format=pix_fmts=yuv420p10,fps=24000/1001,scale=1920:1080:flags=bicubic[main];[1:v]settb=AVTB,setpts=PTS-STARTPTS,format=pix_fmts=yuv420p,fps=24000/1001,scale=1920:1080:flags=bicubic[ref];[main][ref]ssim=eof_action=endall:stats_file='D\\:/Convert/FFMetrics/logs/ssim_logfile-6.txt'" -f null -
Input #0, matroska,webm, from 'G:\Аниме\Онгоинги\!_35_Лето_2024\DreamCast-1\Слишком много проигравших героинь!\[DC] Make Heroine ga Oosugiru - 03_Telegram_HEVC.mkv':
  Metadata:
    COMPATIBLE_BRANDS: isomiso2avc1mp41
    MAJOR_BRAND     : isom
    MINOR_VERSION   : 512
    ENCODER         : Lavf61.7.100
  Duration: 00:24:07.72, start: -0.021000, bitrate: 1117 kb/s
  Stream #0:0: Video: hevc (Main 10), yuv420p10le(tv, bt709, progressive), 1920x1080 [SAR 1:1 DAR 16:9], 23.98 fps, 23.98 tbr, 1k tbn (default)
      Metadata:
        HANDLER_NAME    : VideoHandler
        VENDOR_ID       : [0][0][0][0]
        ENCODER         : Lavc61.19.100 libx265
        BPS             : 920917
        DURATION        : 00:24:06.569708333
        NUMBER_OF_FRAMES: 34683
        NUMBER_OF_BYTES : 166521315
        _STATISTICS_WRITING_APP: mkvpropedit v66.0.0 ('Josie') 64-bit
        _STATISTICS_WRITING_DATE_UTC: 2025-05-11 09:56:04
        _STATISTICS_TAGS: BPS DURATION NUMBER_OF_FRAMES NUMBER_OF_BYTES
  Stream #0:1: Audio: aac (LC), 48000 Hz, stereo, fltp (default)
      Metadata:
        HANDLER_NAME    : SoundHandler
        VENDOR_ID       : [0][0][0][0]
        ENCODER         : Lavc61.19.100 aac
        BPS             : 193357
        DURATION        : 00:24:07.722000000
        NUMBER_OF_FRAMES: 67863
        NUMBER_OF_BYTES : 34991027
        _STATISTICS_WRITING_APP: mkvpropedit v66.0.0 ('Josie') 64-bit
        _STATISTICS_WRITING_DATE_UTC: 2025-05-11 09:56:04
        _STATISTICS_TAGS: BPS DURATION NUMBER_OF_FRAMES NUMBER_OF_BYTES
Input #1, mov,mp4,m4a,3gp,3g2,mj2, from 'G:\Аниме\Онгоинги\!_35_Лето_2024\DreamCast-1\Слишком много проигравших героинь!\[DC] Make Heroine ga Oosugiru - 03_Telegram.mp4':
  Metadata:
    major_brand     : isom
    minor_version   : 512
    compatible_brands: isomiso2avc1mp41
    encoder         : Lavf61.1.100
  Duration: 00:24:07.69, start: 0.000000, bitrate: 3773 kb/s
  Stream #1:0[0x1](und): Video: h264 (High) (avc1 / 0x31637661), yuv420p(tv, bt709, progressive), 1920x1080 [SAR 1:1 DAR 16:9], 3628 kb/s, 23.98 fps, 23.98 tbr, 24k tbn (default)
      Metadata:
        handler_name    : VideoHandler
        vendor_id       : [0][0][0][0]
        encoder         : Lavc61.3.100 h264_qsv
  Stream #1:1[0x2](und): Audio: aac (HE-AACv2) (mp4a / 0x6134706D), 48000 Hz, stereo, fltp, 144 kb/s (default)
      Metadata:
        handler_name    : SoundHandler
        vendor_id       : [0][0][0][0]
Stream mapping:
  Stream #0:0 (hevc) -> settb:default
  Stream #1:0 (h264) -> settb:default
  ssim:default -> Stream #0:0 (wrapped_avframe)
  Stream #0:1 -> #0:1 (aac (native) -> pcm_s16le (native))
Output #0, null, to 'pipe:':
  Metadata:
    COMPATIBLE_BRANDS: isomiso2avc1mp41
    MAJOR_BRAND     : isom
    MINOR_VERSION   : 512
    encoder         : Lavf61.7.100
  Stream #0:0: Video: wrapped_avframe, yuv420p10le(tv, bt709, progressive), 1920x1080 [SAR 1:1 DAR 16:9], q=2-31, 200 kb/s, 23.98 fps, 23.98 tbn
      Metadata:
        encoder         : Lavc61.19.100 wrapped_avframe
  Stream #0:1: Audio: pcm_s16le, 48000 Hz, stereo, s16, 1536 kb/s (default)
      Metadata:
        HANDLER_NAME    : SoundHandler
        VENDOR_ID       : [0][0][0][0]
        _STATISTICS_TAGS: BPS DURATION NUMBER_OF_FRAMES NUMBER_OF_BYTES
        BPS             : 193357
        DURATION        : 00:24:07.722000000
        NUMBER_OF_FRAMES: 67863
        NUMBER_OF_BYTES : 34991027
        _STATISTICS_WRITING_APP: mkvpropedit v66.0.0 ('Josie') 64-bit
        _STATISTICS_WRITING_DATE_UTC: 2025-05-11 09:56:04
        encoder         : Lavc61.19.100 pcm_s16le
frame=  171 fps=0.0 q=-0.0 size=N/A time=00:00:07.13 bitrate=N/A speed=  14x    frame=  434 fps=419 q=-0.0 size=N/A time=00:00:18.10 bitrate=N/A speed=17.5x    frame=  647 fps=416 q=-0.0 size=N/A time=00:00:26.98 bitrate=N/A speed=17.4x    frame=  867 fps=421 q=-0.0 size=N/A time=00:00:36.16 bitrate=N/A speed=17.6x    frame= 1135 fps=440 q=-0.0 size=N/A time=00:00:47.33 bitrate=N/A speed=18.4x    frame= 1391 fps=449 q=-0.0 size=N/A time=00:00:58.01 bitrate=N/A speed=18.7x    frame= 1638 fps=455 q=-0.0 size=N/A time=00:01:08.31 bitrate=N/A speed=  19x    frame= 1886 fps=457 q=-0.0 size=N/A time=00:01:18.66 bitrate=N/A speed=19.1x    frame= 2121 fps=457 q=-0.0 size=N/A time=00:01:28.46 bitrate=N/A speed=  19x    frame= 2358 fps=458 q=-0.0 size=N/A time=00:01:38.34 bitrate=N/A speed=19.1x    frame= 2590 fps=457 q=-0.0 size=N/A time=00:01:48.02 bitrate=N/A speed=  19x    frame= 2838 fps=458 q=-0.0 size=N/A time=00:01:58.36 bitrate=N/A speed=19.1x    frame= 3089 fps=461 q=-0.0 size=N/A time=00:02:08.83 bitrate=N/A speed=19.2x    frame= 3321 fps=460 q=-0.0 size=N/A time=00:02:18.51 bitrate=N/A speed=19.2x    frame= 3559 fps=460 q=-0.0 size=N/A time=00:02:28.43 bitrate=N/A speed=19.2x    frame= 3805 fps=461 q=-0.0 size=N/A time=00:02:38.70 bitrate=N/A speed=19.2x    frame= 4061 fps=463 q=-0.0 size=N/A time=00:02:49.37 bitrate=N/A speed=19.3x    frame= 4255 fps=459 q=-0.0 size=N/A time=00:02:57.46 bitrate=N/A speed=19.1x    frame= 4419 fps=451 q=-0.0 size=N/A time=00:03:04.30 bitrate=N/A speed=18.8x    frame= 4592 fps=445 q=-0.0 size=N/A time=00:03:11.52 bitrate=N/A speed=18.6x    frame= 4765 fps=439 q=-0.0 size=N/A time=00:03:18.74 bitrate=N/A speed=18.3x    frame= 4918 fps=433 q=-0.0 size=N/A time=00:03:25.12 bitrate=N/A speed=  18x    frame= 5080 fps=428 q=-0.0 size=N/A time=00:03:31.87 bitrate=N/A speed=17.8x    frame= 5265 fps=425 q=-0.0 size=N/A time=00:03:39.59 bitrate=N/A speed=17.7x    frame= 5413 fps=420 q=-0.0 size=N/A time=00:03:45.76 bitrate=N/A speed=17.5x    frame= 5571 fps=415 q=-0.0 size=N/A time=00:03:52.35 bitrate=N/A speed=17.3x    frame= 5729 fps=411 q=-0.0 size=N/A time=00:03:58.94 bitrate=N/A speed=17.2x    frame= 5869 fps=406 q=-0.0 size=N/A time=00:04:04.78 bitrate=N/A speed=16.9x    frame= 6058 fps=405 q=-0.0 size=N/A time=00:04:12.66 bitrate=N/A speed=16.9x    frame= 6253 fps=404 q=-0.0 size=N/A time=00:04:20.80 bitrate=N/A speed=16.8x    frame= 6490 fps=405 q=-0.0 size=N/A time=00:04:30.68 bitrate=N/A speed=16.9x    frame= 6737 fps=408 q=-0.0 size=N/A time=00:04:40.98 bitrate=N/A speed=  17x    frame= 6980 fps=410 q=-0.0 size=N/A time=00:04:51.12 bitrate=N/A speed=17.1x    frame= 7222 fps=412 q=-0.0 size=N/A time=00:05:01.21 bitrate=N/A speed=17.2x    frame= 7451 fps=412 q=-0.0 size=N/A time=00:05:10.76 bitrate=N/A speed=17.2x    frame= 7669 fps=413 q=-0.0 size=N/A time=00:05:19.86 bitrate=N/A speed=17.2x    frame= 7909 fps=414 q=-0.0 size=N/A time=00:05:29.87 bitrate=N/A speed=17.3x    frame= 8169 fps=417 q=-0.0 size=N/A time=00:05:40.75 bitrate=N/A speed=17.4x    frame= 8405 fps=418 q=-0.0 size=N/A time=00:05:50.55 bitrate=N/A speed=17.4x    frame= 8661 fps=420 q=-0.0 size=N/A time=00:06:01.23 bitrate=N/A speed=17.5x    frame= 8902 fps=421 q=-0.0 size=N/A time=00:06:11.28 bitrate=N/A speed=17.6x    frame= 9138 fps=422 q=-0.0 size=N/A time=00:06:21.13 bitrate=N/A speed=17.6x    frame= 9353 fps=422 q=-0.0 size=N/A time=00:06:30.09 bitrate=N/A speed=17.6x    frame= 9599 fps=423 q=-0.0 size=N/A time=00:06:40.35 bitrate=N/A speed=17.6x    frame= 9817 fps=423 q=-0.0 size=N/A time=00:06:49.45 bitrate=N/A speed=17.6x    frame=10056 fps=424 q=-0.0 size=N/A time=00:06:59.41 bitrate=N/A speed=17.7x    frame=10284 fps=424 q=-0.0 size=N/A time=00:07:08.92 bitrate=N/A speed=17.7x    frame=10530 fps=425 q=-0.0 size=N/A time=00:07:19.18 bitrate=N/A speed=17.7x    frame=10781 fps=426 q=-0.0 size=N/A time=00:07:29.65 bitrate=N/A speed=17.8x    frame=11008 fps=427 q=-0.0 size=N/A time=00:07:39.12 bitrate=N/A speed=17.8x    frame=11252 fps=428 q=-0.0 size=N/A time=00:07:49.30 bitrate=N/A speed=17.8x    frame=11494 fps=428 q=-0.0 size=N/A time=00:07:59.39 bitrate=N/A speed=17.9x    frame=11721 fps=429 q=-0.0 size=N/A time=00:08:08.86 bitrate=N/A speed=17.9x    frame=11937 fps=428 q=-0.0 size=N/A time=00:08:17.87 bitrate=N/A speed=17.9x    frame=12181 fps=429 q=-0.0 size=N/A time=00:08:28.04 bitrate=N/A speed=17.9x    frame=12403 fps=429 q=-0.0 size=N/A time=00:08:37.30 bitrate=N/A speed=17.9x    frame=12651 fps=430 q=-0.0 size=N/A time=00:08:47.65 bitrate=N/A speed=17.9x    frame=12863 fps=430 q=-0.0 size=N/A time=00:08:56.49 bitrate=N/A speed=17.9x    frame=13098 fps=430 q=-0.0 size=N/A time=00:09:06.29 bitrate=N/A speed=17.9x    frame=13340 fps=431 q=-0.0 size=N/A time=00:09:16.38 bitrate=N/A speed=  18x    frame=13554 fps=431 q=-0.0 size=N/A time=00:09:25.31 bitrate=N/A speed=  18x    frame=13806 fps=432 q=-0.0 size=N/A time=00:09:35.82 bitrate=N/A speed=  18x    frame=14044 fps=432 q=-0.0 size=N/A time=00:09:45.75 bitrate=N/A speed=  18x    frame=14240 fps=431 q=-0.0 size=N/A time=00:09:53.92 bitrate=N/A speed=  18x    frame=14477 fps=432 q=-0.0 size=N/A time=00:10:03.81 bitrate=N/A speed=  18x    frame=14721 fps=432 q=-0.0 size=N/A time=00:10:13.98 bitrate=N/A speed=  18x    frame=14959 fps=433 q=-0.0 size=N/A time=00:10:23.91 bitrate=N/A speed=  18x    frame=15196 fps=433 q=-0.0 size=N/A time=00:10:33.79 bitrate=N/A speed=18.1x    frame=15452 fps=434 q=-0.0 size=N/A time=00:10:44.47 bitrate=N/A speed=18.1x    frame=15689 fps=434 q=-0.0 size=N/A time=00:10:54.36 bitrate=N/A speed=18.1x    frame=15879 fps=433 q=-0.0 size=N/A time=00:11:02.28 bitrate=N/A speed=18.1x    frame=16133 fps=434 q=-0.0 size=N/A time=00:11:12.88 bitrate=N/A speed=18.1x    frame=16365 fps=434 q=-0.0 size=N/A time=00:11:22.55 bitrate=N/A speed=18.1x    frame=16596 fps=435 q=-0.0 size=N/A time=00:11:32.19 bitrate=N/A speed=18.1x    frame=16827 fps=435 q=-0.0 size=N/A time=00:11:41.82 bitrate=N/A speed=18.1x    frame=17068 fps=435 q=-0.0 size=N/A time=00:11:51.87 bitrate=N/A speed=18.2x    frame=17316 fps=436 q=-0.0 size=N/A time=00:12:02.22 bitrate=N/A speed=18.2x    frame=17541 fps=436 q=-0.0 size=N/A time=00:12:11.60 bitrate=N/A speed=18.2x    frame=17780 fps=436 q=-0.0 size=N/A time=00:12:21.57 bitrate=N/A speed=18.2x    frame=18018 fps=437 q=-0.0 size=N/A time=00:12:31.50 bitrate=N/A speed=18.2x    frame=18272 fps=437 q=-0.0 size=N/A time=00:12:42.09 bitrate=N/A speed=18.2x    frame=18515 fps=438 q=-0.0 size=N/A time=00:12:52.22 bitrate=N/A speed=18.2x    frame=18752 fps=438 q=-0.0 size=N/A time=00:13:02.11 bitrate=N/A speed=18.3x    frame=19000 fps=438 q=-0.0 size=N/A time=00:13:12.45 bitrate=N/A speed=18.3x    frame=19252 fps=439 q=-0.0 size=N/A time=00:13:22.96 bitrate=N/A speed=18.3x    frame=19489 fps=439 q=-0.0 size=N/A time=00:13:32.85 bitrate=N/A speed=18.3x    frame=19729 fps=439 q=-0.0 size=N/A time=00:13:42.86 bitrate=N/A speed=18.3x    frame=19960 fps=440 q=-0.0 size=N/A time=00:13:52.49 bitrate=N/A speed=18.3x    frame=20190 fps=440 q=-0.0 size=N/A time=00:14:02.09 bitrate=N/A speed=18.3x    frame=20366 fps=439 q=-0.0 size=N/A time=00:14:09.43 bitrate=N/A speed=18.3x    frame=20578 fps=438 q=-0.0 size=N/A time=00:14:18.27 bitrate=N/A speed=18.3x    frame=20796 fps=438 q=-0.0 size=N/A time=00:14:27.36 bitrate=N/A speed=18.3x    frame=21042 fps=438 q=-0.0 size=N/A time=00:14:37.62 bitrate=N/A speed=18.3x    frame=21287 fps=439 q=-0.0 size=N/A time=00:14:47.84 bitrate=N/A speed=18.3x    frame=21530 fps=439 q=-0.0 size=N/A time=00:14:57.98 bitrate=N/A speed=18.3x    frame=21769 fps=439 q=-0.0 size=N/A time=00:15:07.94 bitrate=N/A speed=18.3x    frame=21979 fps=439 q=-0.0 size=N/A time=00:15:16.70 bitrate=N/A speed=18.3x    frame=22218 fps=439 q=-0.0 size=N/A time=00:15:26.67 bitrate=N/A speed=18.3x    frame=22453 fps=440 q=-0.0 size=N/A time=00:15:36.47 bitrate=N/A speed=18.3x    frame=22688 fps=440 q=-0.0 size=N/A time=00:15:46.27 bitrate=N/A speed=18.3x    frame=22914 fps=440 q=-0.0 size=N/A time=00:15:55.70 bitrate=N/A speed=18.3x    frame=23106 fps=439 q=-0.0 size=N/A time=00:16:03.71 bitrate=N/A speed=18.3x    frame=23351 fps=439 q=-0.0 size=N/A time=00:16:13.93 bitrate=N/A speed=18.3x    frame=23592 fps=440 q=-0.0 size=N/A time=00:16:23.98 bitrate=N/A speed=18.3x    frame=23827 fps=440 q=-0.0 size=N/A time=00:16:33.78 bitrate=N/A speed=18.3x    frame=24063 fps=440 q=-0.0 size=N/A time=00:16:43.62 bitrate=N/A speed=18.3x    frame=24275 fps=440 q=-0.0 size=N/A time=00:16:52.46 bitrate=N/A speed=18.3x    frame=24519 fps=440 q=-0.0 size=N/A time=00:17:02.64 bitrate=N/A speed=18.4x    frame=24765 fps=440 q=-0.0 size=N/A time=00:17:12.90 bitrate=N/A speed=18.4x    frame=25019 fps=441 q=-0.0 size=N/A time=00:17:23.50 bitrate=N/A speed=18.4x    frame=25273 fps=441 q=-0.0 size=N/A time=00:17:34.09 bitrate=N/A speed=18.4x    frame=25513 fps=442 q=-0.0 size=N/A time=00:17:44.10 bitrate=N/A speed=18.4x    frame=25727 fps=441 q=-0.0 size=N/A time=00:17:53.03 bitrate=N/A speed=18.4x    frame=25981 fps=442 q=-0.0 size=N/A time=00:18:03.62 bitrate=N/A speed=18.4x    frame=26215 fps=442 q=-0.0 size=N/A time=00:18:13.38 bitrate=N/A speed=18.4x    frame=26404 fps=441 q=-0.0 size=N/A time=00:18:21.26 bitrate=N/A speed=18.4x    frame=26618 fps=441 q=-0.0 size=N/A time=00:18:30.19 bitrate=N/A speed=18.4x    frame=26836 fps=441 q=-0.0 size=N/A time=00:18:39.28 bitrate=N/A speed=18.4x    frame=27065 fps=441 q=-0.0 size=N/A time=00:18:48.83 bitrate=N/A speed=18.4x    frame=27283 fps=441 q=-0.0 size=N/A time=00:18:57.92 bitrate=N/A speed=18.4x    frame=27531 fps=441 q=-0.0 size=N/A time=00:19:08.27 bitrate=N/A speed=18.4x    frame=27776 fps=441 q=-0.0 size=N/A time=00:19:18.49 bitrate=N/A speed=18.4x    frame=27995 fps=441 q=-0.0 size=N/A time=00:19:27.62 bitrate=N/A speed=18.4x    frame=28224 fps=441 q=-0.0 size=N/A time=00:19:37.17 bitrate=N/A speed=18.4x    frame=28478 fps=442 q=-0.0 size=N/A time=00:19:47.76 bitrate=N/A speed=18.4x    frame=28714 fps=442 q=-0.0 size=N/A time=00:19:57.61 bitrate=N/A speed=18.4x    frame=28948 fps=442 q=-0.0 size=N/A time=00:20:07.37 bitrate=N/A speed=18.4x    frame=29188 fps=442 q=-0.0 size=N/A time=00:20:17.38 bitrate=N/A speed=18.4x    frame=29442 fps=442 q=-0.0 size=N/A time=00:20:27.97 bitrate=N/A speed=18.5x    frame=29696 fps=443 q=-0.0 size=N/A time=00:20:38.57 bitrate=N/A speed=18.5x    frame=29938 fps=443 q=-0.0 size=N/A time=00:20:48.70 bitrate=N/A speed=18.5x    frame=30168 fps=443 q=-0.0 size=N/A time=00:20:58.25 bitrate=N/A speed=18.5x    frame=30402 fps=443 q=-0.0 size=N/A time=00:21:08.01 bitrate=N/A speed=18.5x    frame=30649 fps=443 q=-0.0 size=N/A time=00:21:18.31 bitrate=N/A speed=18.5x    frame=30914 fps=444 q=-0.0 size=N/A time=00:21:29.37 bitrate=N/A speed=18.5x    frame=31161 fps=444 q=-0.0 size=N/A time=00:21:39.67 bitrate=N/A speed=18.5x    frame=31413 fps=444 q=-0.0 size=N/A time=00:21:50.18 bitrate=N/A speed=18.5x    frame=31660 fps=445 q=-0.0 size=N/A time=00:22:00.48 bitrate=N/A speed=18.5x    frame=31923 fps=445 q=-0.0 size=N/A time=00:22:11.45 bitrate=N/A speed=18.6x    frame=32162 fps=445 q=-0.0 size=N/A time=00:22:21.42 bitrate=N/A speed=18.6x    frame=32410 fps=445 q=-0.0 size=N/A time=00:22:31.76 bitrate=N/A speed=18.6x    frame=32635 fps=445 q=-0.0 size=N/A time=00:22:41.15 bitrate=N/A speed=18.6x    frame=32784 fps=444 q=-0.0 size=N/A time=00:22:47.36 bitrate=N/A speed=18.5x    frame=32944 fps=443 q=-0.0 size=N/A time=00:22:54.03 bitrate=N/A speed=18.5x    frame=33124 fps=443 q=-0.0 size=N/A time=00:23:01.54 bitrate=N/A speed=18.5x    frame=33312 fps=442 q=-0.0 size=N/A time=00:23:09.38 bitrate=N/A speed=18.4x    frame=33522 fps=442 q=-0.0 size=N/A time=00:23:18.14 bitrate=N/A speed=18.4x    frame=33706 fps=441 q=-0.0 size=N/A time=00:23:25.82 bitrate=N/A speed=18.4x    frame=33894 fps=441 q=-0.0 size=N/A time=00:23:33.66 bitrate=N/A speed=18.4x    frame=34103 fps=441 q=-0.0 size=N/A time=00:23:42.37 bitrate=N/A speed=18.4x    frame=34295 fps=440 q=-0.0 size=N/A time=00:23:50.38 bitrate=N/A speed=18.4x    frame=34467 fps=440 q=-0.0 size=N/A time=00:23:57.56 bitrate=N/A speed=18.3x    [Parsed_ssim_10 @ 000001c51fad4d00] SSIM Y:0.994136 (22.318408) U:0.993302 (21.740640) V:0.993213 (21.683358) All:0.993844 (22.106688)
[out#0/null @ 000001c512976e00] video:14903KiB audio:271452KiB subtitle:0KiB other streams:0KiB global headers:0KiB muxing overhead: unknown
frame=34683 fps=439 q=-0.0 Lsize=N/A time=00:24:06.57 bitrate=N/A speed=18.3x    
